<svg xmlns="http://www.w3.org/2000/svg" xmlns:xlink="http://www.w3.org/1999/xlink" width="318.533" height="190.424" viewBox="0 0 318.533 190.424">
  <defs>
    <clipPath id="clip-path">
      <rect width="318.533" height="190.424" fill="none"/>
    </clipPath>
  </defs>
  <g id="Repeat_Grid_4" data-name="Repeat Grid 4" clip-path="url(#clip-path)">
    <g id="Group_38" data-name="Group 38" transform="translate(0 0)">
      <path id="Path_344" data-name="Path 344" d="M820.69,598.64a16.46,16.46,0,0,1-5.906-14.189c.65-5.3,4.673-10.171,9.892-11.3s11.168,1.99,12.754,7.088c.872-9.829,1.878-20.07,7.1-28.441a30.12,30.12,0,0,1,21.81-13.973,27.025,27.025,0,0,1,23.774,9.7,24.527,24.527,0,0,1,3.016,25.252c-2.858,5.929-8.124,10.342-13.641,13.932a88.037,88.037,0,0,1-60.212,13.172Z" transform="translate(-576.813 -410.355)" fill="#f2f2f2"/>
      <path id="Path_345" data-name="Path 345" d="M922.72,545.66a145.263,145.263,0,0,0-42.683,57.715c-.407,1,1.213,1.432,1.615.445A143.649,143.649,0,0,1,923.9,546.844c.836-.681-.355-1.86-1.185-1.185Z" transform="translate(-618.199 -415.288)" fill="#fff"/>
      <path id="Path_346" data-name="Path 346" d="M267.541,556.662c5.6-4.733,9-12.21,8.111-19.488s-6.419-13.97-13.587-15.516-15.34,2.733-17.517,9.735c-1.2-13.5-2.579-27.567-9.757-39.064-6.5-10.41-17.756-17.859-29.956-19.192s-25.045,3.7-32.653,13.33-9.472,23.628-4.143,34.683c3.926,8.144,11.158,14.2,18.736,19.135a120.918,120.918,0,0,0,82.7,18.092" transform="translate(-165 -369.313)" fill="#f2f2f2"/>
      <path id="Path_347" data-name="Path 347" d="M214.073,483.893a197.841,197.841,0,0,1,27.571,27.378A198.413,198.413,0,0,1,272.7,563.165c.559,1.37-1.666,1.967-2.219.612a196.377,196.377,0,0,0-17.944-33.95,197.131,197.131,0,0,0-40.09-44.306c-1.149-.935.488-2.555,1.627-1.627Z" transform="translate(-194.826 -376.089)" fill="#fff"/>
      <path id="Path_348" data-name="Path 348" d="M558.138,379.953H424.5V242.837a52.966,52.966,0,0,1,52.906-52.906h27.826a52.966,52.966,0,0,1,52.906,52.906Z" transform="translate(-329.489 -189.931)" fill="#f2f2f2"/>
      <path id="Path_349" data-name="Path 349" d="M530.311,379.955H424.5V242.839a52.5,52.5,0,0,1,10.1-31.1c.243-.331.485-.658.736-.982a52.894,52.894,0,0,1,11.26-10.929c.242-.176.484-.348.73-.521a52.781,52.781,0,0,1,11.523-6.026c.242-.092.488-.184.735-.272a52.731,52.731,0,0,1,11.39-2.686c.241-.033.488-.059.735-.084a53.561,53.561,0,0,1,11.389,0c.247.026.494.051.737.085a52.72,52.72,0,0,1,11.387,2.686c.246.088.493.18.735.272a52.648,52.648,0,0,1,11.389,5.937c.246.169.492.342.735.514a53.45,53.45,0,0,1,6.731,5.7,52.838,52.838,0,0,1,4.659,5.327c.249.322.492.649.734.98a52.5,52.5,0,0,1,10.1,31.1Z" transform="translate(-329.489 -189.933)" fill="#ccc"/>
      <circle id="Ellipse_58" data-name="Ellipse 58" cx="5.858" cy="5.858" r="5.858" transform="translate(186.36 116.979)" fill="#ffcc24"/>
      <path id="Path_350" data-name="Path 350" d="M583.13,477.809h-4.489l-2.136-17.314h6.625Z" transform="translate(-365.43 -291.894)" fill="#ffb8b8"/>
      <path id="Path_351" data-name="Path 351" d="M564.146,504.28H572.8v5.451H558.7A5.451,5.451,0,0,1,564.146,504.28Z" transform="translate(-354.14 -319.648)" fill="#2f2e41"/>
      <path id="Path_352" data-name="Path 352" d="M644.13,477.809h-4.489l-2.136-17.314h6.625Z" transform="translate(-404.096 -291.894)" fill="#ffb8b8"/>
      <path id="Path_353" data-name="Path 353" d="M625.146,504.28H633.8v5.451H619.7A5.451,5.451,0,0,1,625.146,504.28Z" transform="translate(-392.806 -319.648)" fill="#2f2e41"/>
      <path id="Path_354" data-name="Path 354" d="M696.923,445.747a3.933,3.933,0,0,1,1.651-5.8l15.259-42.056,7.508,4.1-17.422,40.19a3.955,3.955,0,0,1-7,3.569Z" transform="translate(-501.74 -321.75)" fill="#ffb8b8"/>
      <path id="Path_355" data-name="Path 355" d="M804.319,462.884a3.933,3.933,0,0,1-1.059-5.937l-4.727-44.488,8.545.39,1.964,43.76a3.955,3.955,0,0,1-4.723,6.275Z" transform="translate(-566.578 -330.984)" fill="#ffb8b8"/>
      <circle id="Ellipse_59" data-name="Ellipse 59" cx="8.993" cy="8.993" r="8.993" transform="translate(215.118 50.366)" fill="#ffb8b8"/>
      <path id="Path_356" data-name="Path 356" d="M767.244,435.789H740.133l.033-.211c.049-.315,4.832-31.648,1.3-41.9a4.325,4.325,0,0,1,2.222-5.339h0c5.042-2.375,14.721-5.3,22.89,1.8a10.338,10.338,0,0,1,3.463,8.566Z" transform="translate(-529.56 -314.007)" fill="#ffcc24"/>
      <path id="Path_357" data-name="Path 357" d="M733.223,413.765l-12.205-2.476,5.721-13.558a5.125,5.125,0,1,1,9.924,2.562Z" transform="translate(-517.443 -319.212)" fill="#ffcc24"/>
      <path id="Path_358" data-name="Path 358" d="M795.606,420.006l-.734-16.821c-.556-3.162,1.254-6.151,4.037-6.64s5.5,1.706,6.063,4.891l2.758,15.717Z" transform="translate(-564.193 -320.855)" fill="#ffcc24"/>
      <path id="Path_359" data-name="Path 359" d="M763.813,517.049c4.362,16.614,4.838,37.737,3.661,60.778l-5.858-.732L751,533.159l-5.858,44.668-6.59-.366c-1.969-24.175-3.886-44.93-.732-58.581Z" transform="translate(-527.031 -397.281)" fill="#2f2e41"/>
      <path id="Path_360" data-name="Path 360" d="M764.339,336.26a2.9,2.9,0,0,1-5.012-1.614,2.95,2.95,0,0,1,0-.57c.113-1.081.738-2.063.588-3.2a1.683,1.683,0,0,0-.308-.787c-1.337-1.79-4.475.8-5.737-.82-.774-.994.136-2.558-.458-3.669-.783-1.466-3.1-.743-4.56-1.546-1.619-.893-1.522-3.378-.456-4.889a7.69,7.69,0,0,1,5.83-2.968,15.639,15.639,0,0,1,6.588,1.286,13.164,13.164,0,0,1,6.224,4.316,10.536,10.536,0,0,1,1.065,8.971C767.565,332.582,765.709,334.8,764.339,336.26Z" transform="translate(-534.304 -269.952)" fill="#2f2e41"/>
      <path id="Path_361" data-name="Path 361" d="M536.243,708.065H265.931a.436.436,0,0,1,0-.872H536.243a.436.436,0,1,1,0,.872Z" transform="translate(-228.701 -517.807)" fill="#3f3d56"/>
      <path id="Path_362" data-name="Path 362" d="M547.477,408.368h-47.6a2.367,2.367,0,0,1-2.38-2.349V299.779a2.367,2.367,0,0,1,2.38-2.349h47.6a2.367,2.367,0,0,1,2.38,2.349v106.24A2.367,2.367,0,0,1,547.477,408.368Z" transform="translate(-375.762 -258.071)" fill="#fff"/>
      <rect id="Rectangle_239" data-name="Rectangle 239" width="52.357" height="0.732" transform="translate(121.738 73.735)" fill="#ccc"/>
      <rect id="Rectangle_240" data-name="Rectangle 240" width="52.357" height="0.732" transform="translate(121.921 115.514)" fill="#ccc"/>
      <rect id="Rectangle_241" data-name="Rectangle 241" width="0.732" height="111.304" transform="translate(138.214 39.359)" fill="#ccc"/>
      <rect id="Rectangle_242" data-name="Rectangle 242" width="0.732" height="111.304" transform="translate(156.52 39.359)" fill="#ccc"/>
    </g>
  </g>
</svg>
