<svg xmlns="http://www.w3.org/2000/svg" width="391.533" height="235.498" viewBox="0 0 391.533 235.498">
  <g id="Group_39" data-name="Group 39" transform="translate(0 0)">
    <path id="Path_363" data-name="Path 363" d="M89.522,440.013l23.092-33.178-23.1,36.787L89.5,447.4q-2.47-.021-4.89-.161c-.007-.857,1.955-48.017,1.872-48.87.114-.032.178-4.46.223-4.654L62.578,357.456l24.15,32.825.072.97,1.433-36.64L67.5,317.09l20.9,31.083c.008-.5.989-75.729,1-76.193.006.247.456,59.869.46,60.12l19.833-24L89.836,337.257l-.1,32.793,18.4-31.711C85.171,384.584,90.254,368.4,89.667,393.1L116.4,348.95,89.644,399.466Z" transform="translate(-62.456 -219.037)" fill="#d0cde1"/>
    <path id="Path_364" data-name="Path 364" d="M1087.377,623.6,1097,609.777l-9.628,15.33-.006,1.573q-1.029-.009-2.038-.067c0-.357.815-20.01.78-20.365.047-.013.074-1.859.093-1.939L1076.15,589.2l10.064,13.679.03.4.6-15.269-8.642-15.636,8.71,12.953c0-.208.412-31.558.416-31.752,0,.1.19,24.949.192,25.053l8.265-10-8.274,12.15-.042,13.665,7.67-13.215c-9.572,19.272-7.453,12.528-7.7,22.822l11.141-18.4-11.15,21.051Z" transform="translate(-707.045 -398.123)" fill="#d0cde1"/>
    <ellipse id="Ellipse_60" data-name="Ellipse 60" cx="195.126" cy="7.645" rx="195.126" ry="7.645" transform="translate(0 220.209)" fill="#d0cde1"/>
    <rect id="Rectangle_243" data-name="Rectangle 243" width="222.794" height="132.828" transform="translate(66.984 90.294)" fill="#3f3d56"/>
    <path id="Path_365" data-name="Path 365" d="M301.38,374.581a53.279,53.279,0,0,1-53.267,52.411c-.626,0-1.249-.011-1.871-.033V374.581Z" transform="translate(-179.258 -284.287)" fill="#ffcc24"/>
    <path id="Path_366" data-name="Path 366" d="M545.162,726.537h-21.19a11.288,11.288,0,0,1,21.19,0Z" transform="translate(-355.883 -503.415)" fill="#ffcc24"/>
    <path id="Path_367" data-name="Path 367" d="M821.026,550.721v44.741a22.4,22.4,0,0,1,0-44.741Z" transform="translate(-531.249 -396.305)" fill="#ffcc24"/>
    <rect id="Rectangle_244" data-name="Rectangle 244" width="153.677" height="13.128" rx="6.564" transform="translate(101.735 138.56)" fill="#fff"/>
    <rect id="Rectangle_245" data-name="Rectangle 245" width="153.677" height="13.128" rx="6.564" transform="translate(101.735 164.43)" fill="#fff"/>
    <rect id="Rectangle_246" data-name="Rectangle 246" width="53.88" height="13.128" rx="6.564" transform="translate(201.533 190.301)" fill="#fff"/>
    <path id="Path_368" data-name="Path 368" d="M943.4,238.654a11.285,11.285,0,0,1,6.467,10.211c.34,7.828-1.7,29.611-1.7,29.611s7.488,10.891,1.7,13.954-6.467-12.253-6.467-12.253L936.6,247.844S940.68,238.314,943.4,238.654Z" transform="translate(-618.294 -197.838)" fill="#a0616a"/>
    <path id="Path_369" data-name="Path 369" d="M756.4,229.721s-14.635,9.53-15.316,2.042S745.51,195,745.51,195s.681-12.593,7.828-9.53-2.042,13.614-2.042,13.614l1.021,23.825,6.807-.34Z" transform="translate(-493.919 -163.718)" fill="#a0616a"/>
    <path id="Path_370" data-name="Path 370" d="M773.3,320.517s-44.927-16.677-42.544,2.723,13.955,43.906,13.955,43.906l4.084,6.467H757.3l-5.446-35.057s19.4,10.891,25.186,9.19c0,0,7.488,50.032,10.211,53.776s7.488,49.011,7.488,49.011l4.425,5.446h8.509V379.4s14.635-47.649,3.4-50.032S773.3,320.517,773.3,320.517Z" transform="translate(-487.328 -245.665)" fill="#2f2e41"/>
    <path id="Path_371" data-name="Path 371" d="M732.24,462.951s-2.042-3.744-5.446,0-11.572,8.168-11.572,8.168-17.7,4.084-3.4,7.488,16,0,16,0,2.382.681,4.425,1.361,15.316-1.7,15.316-3.744-4.506-14.246-6.337-12.4S732.24,462.951,732.24,462.951Z" transform="translate(-471.799 -339.429)" fill="#2f2e41"/>
    <path id="Path_372" data-name="Path 372" d="M883.267,689.483s-5.018-4.133-6.2-2.952-7.38,9.151-7.38,9.151-16.531,12.693-1.476,14.76,14.169-3.542,14.169-3.542H887.1c.59,0,8.561-3.542,8.266-5.018s-3.838-13.512-5.018-12.66S883.267,689.483,883.267,689.483Z" transform="translate(-570.78 -482.54)" fill="#2f2e41"/>
    <circle id="Ellipse_61" data-name="Ellipse 61" cx="11.572" cy="11.572" r="11.572" transform="translate(255.336 4.739)" fill="#a0616a"/>
    <path id="Path_373" data-name="Path 373" d="M805.373,167.615s8.849,7.488,14.976,7.488-8.849,13.955-8.849,13.955l-13.274-11.912Z" transform="translate(-530.297 -152.666)" fill="#a0616a"/>
    <path id="Path_374" data-name="Path 374" d="M792.426,189.541l-.265-2.681s6.732-11.954,8.774-12.975a8.449,8.449,0,0,1,3.4-1.021s6.807-7.147,14.295-3.4,25.186,27.569,25.186,27.569-12.593,1.021-10.891,10.891c0,0,12.593,32.334,9.19,32.674s-13.614-2.042-24.165,2.723-15.316,1.7-15.316,1.7l-5.446-17.7s-10.211-5.786-9.87-10.891l-14.805,6.637,1.361-12.593,9.019-10.381S781.194,198.73,792.426,189.541Z" transform="translate(-513.946 -153.149)" fill="#ffcc24"/>
    <path id="Path_375" data-name="Path 375" d="M756.056,144.113a4.272,4.272,0,0,1-1.68,1.144,1.466,1.466,0,0,1-1.752-.674l.489-.637-1.467-.912.639-.75L751.1,141l.932-.74-1.776-1.27c2.3-3.755,4.79-7.557,8.423-10.046s8.71-3.374,12.431-1.019a13.594,13.594,0,0,1,4.393,5.17c2.2,4.037,4.141,7.973,4.428,12.562-1.383-1.346-3.4-2.105-4.784-3.452a10.362,10.362,0,0,0-2.064-1.689c-1.446-.816-3.177-.888-4.8-1.256a7.2,7.2,0,0,1-3.275-1.8c-1.225-1.044-1.275-.64-2.512.535Q759.283,141.056,756.056,144.113Z" transform="translate(-499.793 -126.55)" fill="#2f2e41"/>
  </g>
</svg>
